<?xml version="1.0" encoding="utf-8"?>
<!-- Generator: Adobe Illustrator 18.0.0, SVG Export Plug-In . SVG Version: 6.00 Build 0)  -->
<!DOCTYPE svg PUBLIC "-//W3C//DTD SVG 1.1//EN" "http://www.w3.org/Graphics/SVG/1.1/DTD/svg11.dtd">
<svg
	 viewBox="0 0 612 792" enable-background="new 0 0 612 792" xml:space="preserve">
<path fill="#FFFFFF" stroke="#231F20" stroke-miterlimit="10" d="M120,201c0,0-72,209,28,210"/>
<path fill="#FFFFFF" stroke="#231F20" stroke-miterlimit="10" d="M227,293c0,0,79,42,4,103s-68-68-68-68L227,293z"/>
<path fill="#FFFFFF" stroke="#231F20" stroke-miterlimit="10" d="M238.5,389.5L306,335c37,76,37,76,37,76l88-76c31.2,0,59,0,87,0
	c0,0-4-84-61-64c0,0,20.4,44.1-14.3,20.5C408,267.9,427,314,427,314l2,16c0,0,13,76,45,75"/>
</svg>
